<svg width="46" height="46" viewBox="0 0 46 46" fill="none" xmlns="http://www.w3.org/2000/svg">
<g clip-path="url(#clip0_27_1277)">
<path d="M11.728 7.78717C14.6597 5.29757 18.3447 3.93283 22.1503 3.92726C25.9558 3.9217 29.6445 5.27564 32.5832 7.75666" stroke="#6750A4" stroke-width="3" stroke-linecap="round"/>
<path d="M28.2571 42.1184C28.4085 41.5711 28.4872 40.0248 28.4949 39.4559C28.495 35.8738 25.4951 35.0874 22.004 35.0874C18.5129 35.0874 15.8525 36.5339 15.8525 40.116C15.8595 40.6755 15.8947 41.7905 16.0408 42.3296" stroke="#6750A4" stroke-width="5" stroke-linecap="round"/>
<path d="M21.8273 28.6663C24.4607 28.6663 26.5955 26.5502 26.5955 23.9397C26.5955 21.3293 24.4607 19.2131 21.8273 19.2131C19.1939 19.2131 17.0591 21.3293 17.0591 23.9397C17.0591 26.5502 19.1939 28.6663 21.8273 28.6663Z" fill="#6750A4" stroke="#6750A4" stroke-width="5" stroke-linecap="round"/>
<path d="M16.6479 12.9857C17.3593 12.2805 18.2068 11.7248 19.1397 11.3516C20.0726 10.9785 21.0719 10.7957 22.0777 10.814C23.0835 10.8323 24.0753 11.0515 24.9937 11.4584C25.9122 11.8653 26.7385 12.4516 27.4232 13.1822" stroke="#6750A4" stroke-width="3" stroke-linecap="round"/>
<path d="M40.4251 18.3513C43.4445 28.2254 38.0796 38.7044 28.2573 42.1182" stroke="#6750A4" stroke-width="5" stroke-linecap="round"/>
<path d="M16.0409 42.3295C13.3486 41.4971 10.8714 40.0938 8.78121 38.2171C6.69102 36.3403 5.03794 34.0351 3.93675 31.4615C2.83556 28.8879 2.31264 26.1075 2.40431 23.3134C2.49598 20.5193 3.20003 17.7785 4.46759 15.2812" stroke="#6750A4" stroke-width="5" stroke-linecap="round"/>
</g>
<defs>
<clipPath id="clip0_27_1277">
<rect width="46" height="46" fill="white"/>
</clipPath>
</defs>
</svg>
